<?xml version="1.0" encoding="utf-8"?>
<!-- Generator: Adobe Illustrator 25.0.0, SVG Export Plug-In . SVG Version: 6.00 Build 0)  -->
<svg version="1.1" id="Capa_1" xmlns="http://www.w3.org/2000/svg" xmlns:xlink="http://www.w3.org/1999/xlink" x="0px" y="0px"
	 viewBox="0 0 900 220" style="enable-background:new 0 0 900 220;" xml:space="preserve">
<style type="text/css">
	.st0{opacity:0.4;fill:#232856;}
	.st1{opacity:0.5;fill:#232856;}
	.st2{fill:#FFFFFF;}
	.st3{fill:#88C9B4;}
	.st4{fill:#70C0A3;}
	.st5{fill:#54B3E6;}
	.st6{opacity:0.7;}
	.st7{opacity:0.2;}
	.st8{clip-path:url(#SVGID_2_);fill-rule:evenodd;clip-rule:evenodd;fill:#3B4194;}
	.st9{clip-path:url(#SVGID_4_);fill-rule:evenodd;clip-rule:evenodd;fill:#3B4194;}
	.st10{clip-path:url(#SVGID_6_);fill-rule:evenodd;clip-rule:evenodd;fill:#3B4194;}
	.st11{clip-path:url(#SVGID_8_);fill-rule:evenodd;clip-rule:evenodd;fill:#67BFE6;}
	.st12{clip-path:url(#SVGID_10_);fill-rule:evenodd;clip-rule:evenodd;fill:#67BFE6;}
</style>
<circle class="st0" cx="441.3" cy="107.1" r="92.7"/>
<circle class="st1" cx="321.9" cy="162.6" r="21.9"/>
<g>
	<circle class="st1" cx="556.6" cy="58.3" r="21.9"/>
	<path class="st2" d="M354.6,111.7c1.6,1.8,2.4,4.2,2.4,7.1c0,3.6-1.3,6.4-4,8.4c-2.6,2-6.6,2.9-11.8,2.9h-19V87.4H340
		c4.6,0,8.3,0.9,10.8,2.8c2.6,1.9,3.9,4.6,3.9,8.1c0,2.4-0.6,4.5-1.9,6.2c-1.3,1.7-3,2.9-5.2,3.6C350.7,108.6,353,109.8,354.6,111.7
		 M325.3,90v17h14.6c3.7,0,6.6-0.7,8.6-2.2c2-1.4,3-3.6,3-6.4c0-2.8-1-4.9-3-6.3c-2-1.4-4.9-2.2-8.6-2.2H325.3z M350.7,125.2
		c2.1-1.4,3.2-3.7,3.2-6.7c0-3-1.1-5.2-3.2-6.7c-2.1-1.4-5.3-2.1-9.4-2.1h-15.9v17.6h15.9C345.4,127.4,348.6,126.7,350.7,125.2"/>
	<path class="st2" d="M398.4,130.1l-10.2-14.3c-1.5,0.2-2.9,0.3-4.2,0.3h-12.2v14h-3.1V87.4h15.3c5.4,0,9.6,1.3,12.6,3.8
		c3.1,2.5,4.6,6.1,4.6,10.6c0,3.4-0.9,6.2-2.6,8.5c-1.7,2.3-4.2,3.9-7.4,4.9l10.7,15H398.4z M384.1,113.4c4.6,0,8-1,10.4-3
		c2.4-2,3.6-4.9,3.6-8.6c0-3.7-1.2-6.6-3.6-8.6c-2.4-2-5.9-3-10.4-3h-12.2v23.2H384.1z"/>
	<path class="st2" d="M439.7,118.1H415l-5.4,12h-3.4l19.7-42.7h3.1l19.7,42.7h-3.4L439.7,118.1z M438.6,115.4l-11.2-24.7l-11.2,24.7
		H438.6z"/>
	<rect x="457" y="87.4" class="st2" width="3.1" height="42.7"/>
	<polygon class="st2" points="475.6,87.4 478.7,87.4 478.7,127.3 503.3,127.3 503.3,130.1 475.6,130.1 	"/>
	<polygon class="st2" points="511.9,87.4 515,87.4 515,127.3 539.6,127.3 539.6,130.1 511.9,130.1 	"/>
	<polygon class="st2" points="577.7,127.3 577.7,130.1 548.2,130.1 548.2,87.4 576.8,87.4 576.8,90.2 551.3,90.2 551.3,107 
		574.1,107 574.1,109.8 551.3,109.8 551.3,127.3 	"/>
	<polygon class="st3" points="325.7,54.3 325.7,58.6 333.3,58.6 333.3,61.6 325.7,61.6 325.7,67.6 321.9,67.6 321.9,51.2 
		334.3,51.2 334.3,54.3 	"/>
	<path class="st3" d="M342.4,66.8c-1.4-0.7-2.4-1.7-3.2-3c-0.8-1.3-1.2-2.7-1.2-4.3s0.4-3.1,1.2-4.3c0.8-1.3,1.8-2.3,3.2-3
		c1.4-0.7,2.9-1.1,4.6-1.1c1.7,0,3.2,0.4,4.6,1.1c1.4,0.7,2.4,1.7,3.2,3c0.8,1.3,1.2,2.7,1.2,4.3s-0.4,3.1-1.2,4.3
		c-0.8,1.3-1.9,2.3-3.2,3c-1.4,0.7-2.9,1.1-4.6,1.1C345.3,67.9,343.8,67.5,342.4,66.8 M349.6,64c0.8-0.4,1.4-1.1,1.8-1.9
		c0.4-0.8,0.7-1.7,0.7-2.7s-0.2-1.9-0.7-2.7c-0.4-0.8-1.1-1.4-1.8-1.9c-0.8-0.4-1.7-0.7-2.6-0.7c-1,0-1.8,0.2-2.6,0.7
		c-0.8,0.4-1.4,1.1-1.8,1.9c-0.4,0.8-0.7,1.7-0.7,2.7s0.2,1.9,0.7,2.7s1.1,1.4,1.8,1.9c0.8,0.4,1.7,0.7,2.6,0.7
		C348,64.7,348.8,64.4,349.6,64"/>
	<path class="st3" d="M371.6,67.6l-3.2-4.6h-0.2H365v4.6h-3.8V51.2h7.1c1.5,0,2.7,0.2,3.8,0.7c1.1,0.5,1.9,1.2,2.5,2.1
		s0.9,1.9,0.9,3.2c0,1.2-0.3,2.3-0.9,3.2c-0.6,0.9-1.4,1.6-2.5,2l3.7,5.3H371.6z M370.7,55c-0.6-0.5-1.5-0.7-2.6-0.7H365V60h3.1
		c1.1,0,2-0.2,2.6-0.8c0.6-0.5,0.9-1.2,0.9-2.1C371.6,56.2,371.3,55.5,370.7,55"/>
	<path class="st3" d="M384.1,66.8c-1.4-0.7-2.4-1.7-3.2-3c-0.8-1.3-1.2-2.7-1.2-4.3s0.4-3.1,1.2-4.3c0.8-1.3,1.8-2.3,3.2-3
		s2.9-1.1,4.6-1.1c1.7,0,3.2,0.4,4.6,1.1c1.4,0.7,2.4,1.7,3.2,3c0.8,1.3,1.2,2.7,1.2,4.3s-0.4,3.1-1.2,4.3c-0.8,1.3-1.9,2.3-3.2,3
		c-1.4,0.7-2.9,1.1-4.6,1.1C387,67.9,385.4,67.5,384.1,66.8 M391.3,64c0.8-0.4,1.4-1.1,1.8-1.9c0.4-0.8,0.7-1.7,0.7-2.7
		s-0.2-1.9-0.7-2.7c-0.4-0.8-1.1-1.4-1.8-1.9c-0.8-0.4-1.7-0.7-2.6-0.7c-1,0-1.8,0.2-2.6,0.7c-0.8,0.4-1.4,1.1-1.8,1.9
		c-0.4,0.8-0.7,1.7-0.7,2.7s0.2,1.9,0.7,2.7c0.4,0.8,1.1,1.4,1.8,1.9c0.8,0.4,1.7,0.7,2.6,0.7C389.6,64.7,390.5,64.4,391.3,64"/>
	<polygon class="st3" points="427.6,51.2 420.5,67.6 416.7,67.6 409.7,51.2 413.8,51.2 418.8,62.9 423.8,51.2 	"/>
	<rect x="431.3" y="51.2" class="st3" width="3.8" height="16.4"/>
	<path class="st3" d="M451.8,67.6l-3.2-4.6h-0.2h-3.3v4.6h-3.8V51.2h7.1c1.5,0,2.7,0.2,3.8,0.7c1.1,0.5,1.9,1.2,2.5,2.1
		s0.9,1.9,0.9,3.2c0,1.2-0.3,2.3-0.9,3.2c-0.6,0.9-1.4,1.6-2.5,2l3.7,5.3H451.8z M450.8,55c-0.6-0.5-1.5-0.7-2.6-0.7h-3.1V60h3.1
		c1.1,0,2-0.2,2.6-0.8c0.6-0.5,0.9-1.2,0.9-2.1C451.7,56.2,451.4,55.5,450.8,55"/>
	<polygon class="st4" points="464,54.3 458.8,54.3 458.8,51.2 473.1,51.2 473.1,54.3 467.8,54.3 467.8,67.6 464,67.6 	"/>
	<path class="st3" d="M479,66c-1.3-1.3-2-3.1-2-5.6v-9.2h3.8v9c0,2.9,1.2,4.4,3.7,4.4c1.2,0,2.1-0.4,2.7-1.1
		c0.6-0.7,0.9-1.8,0.9-3.3v-9h3.7v9.2c0,2.4-0.7,4.3-2,5.6c-1.3,1.3-3.1,1.9-5.5,1.9C482.1,67.9,480.3,67.2,479,66"/>
	<path class="st3" d="M508.4,64.1h-7.6l-1.5,3.5h-3.9l7.3-16.4h3.7l7.3,16.4h-4L508.4,64.1z M507.3,61.2l-2.6-6.3l-2.6,6.3H507.3z"
		/>
	<polygon class="st3" points="517.9,51.2 521.7,51.2 521.7,64.5 530,64.5 530,67.6 517.9,67.6 	"/>
	<path class="st2" d="M552.5,49.7v17.9h-0.8v-3.4c-0.5,1.1-1.2,2-2.1,2.6c-1,0.6-2,0.9-3.3,0.9c-1.1,0-2.2-0.3-3.1-0.8
		c-0.9-0.5-1.7-1.3-2.2-2.3c-0.5-1-0.8-2.1-0.8-3.3c0-1.2,0.3-2.3,0.8-3.3c0.5-1,1.3-1.7,2.2-2.3c0.9-0.5,2-0.8,3.1-0.8
		c1.2,0,2.3,0.3,3.2,0.9c1,0.6,1.7,1.5,2.1,2.5v-8.7H552.5z M549.1,66.3c0.8-0.5,1.5-1.1,1.9-2c0.5-0.9,0.7-1.8,0.7-2.9
		c0-1.1-0.2-2.1-0.7-2.9c-0.5-0.8-1.1-1.5-1.9-2c-0.8-0.5-1.7-0.7-2.7-0.7c-1,0-1.9,0.2-2.7,0.7c-0.8,0.5-1.5,1.1-1.9,2
		c-0.5,0.8-0.7,1.8-0.7,2.9c0,1.1,0.2,2.1,0.7,2.9c0.5,0.9,1.1,1.5,1.9,2c0.8,0.5,1.7,0.7,2.7,0.7C547.4,67,548.3,66.7,549.1,66.3"
		/>
	<path class="st2" d="M566.8,61.5h-11c0,1.1,0.3,2,0.7,2.8c0.5,0.8,1.1,1.5,2,2c0.8,0.5,1.8,0.7,2.8,0.7c0.9,0,1.6-0.2,2.4-0.5
		c0.7-0.3,1.3-0.8,1.8-1.4l0.5,0.5c-0.6,0.7-1.2,1.2-2.1,1.5c-0.8,0.4-1.7,0.5-2.6,0.5c-1.2,0-2.3-0.3-3.3-0.8
		c-1-0.5-1.7-1.3-2.3-2.3c-0.5-1-0.8-2.1-0.8-3.3c0-1.2,0.3-2.3,0.8-3.3c0.5-1,1.2-1.7,2.1-2.3c0.9-0.5,1.9-0.8,3-0.8
		c1.1,0,2.1,0.3,3,0.8c0.9,0.5,1.6,1.3,2.1,2.2c0.5,0.9,0.8,2,0.8,3.2V61.5z M558.4,56.4c-0.8,0.4-1.4,1-1.8,1.8
		c-0.5,0.8-0.7,1.7-0.7,2.6h10.2c-0.1-1-0.3-1.8-0.8-2.6c-0.5-0.8-1.1-1.4-1.8-1.8c-0.7-0.4-1.6-0.7-2.5-0.7
		C560,55.7,559.2,55.9,558.4,56.4"/>
	<path class="st2" d="M334.5,158.3l-7.7,17c-0.5,1.2-1.2,2.1-1.9,2.6c-0.7,0.5-1.5,0.8-2.5,0.8c-0.7,0-1.3-0.1-1.8-0.3
		c-0.6-0.2-1.1-0.5-1.4-1l0.5-0.7c0.4,0.4,0.8,0.7,1.2,0.9c0.4,0.2,0.9,0.3,1.5,0.3c0.7,0,1.4-0.2,1.9-0.6s1-1.1,1.5-2.2l0.9-2
		l-6.7-14.7h1l6.2,13.7l6.2-13.7H334.5z"/>
	<path class="st5" d="M348.9,147.8h6.3v2.9c1.1-1.2,2.3-2.1,3.6-2.7c1.3-0.6,2.8-0.9,4.3-0.9c1.6,0,3,0.4,4.3,1.2
		c1.3,0.8,2.3,1.9,3.1,3.4c1-1.5,2.2-2.6,3.7-3.4c1.5-0.8,3.1-1.2,4.8-1.2c1.8,0,3.4,0.4,4.7,1.3c1.4,0.8,2.3,1.9,2.9,3.3
		c0.6,1.3,0.9,3.5,0.9,6.6v14.8h-6.4v-12.8c0-2.9-0.4-4.8-1.1-5.8c-0.7-1-1.8-1.5-3.2-1.5c-1.1,0-2.1,0.3-2.9,0.9
		c-0.9,0.6-1.5,1.5-1.9,2.6c-0.4,1.1-0.6,2.8-0.6,5.3v11.4h-6.4v-12.2c0-2.3-0.2-3.9-0.5-4.9c-0.3-1-0.8-1.8-1.5-2.3
		c-0.7-0.5-1.5-0.7-2.4-0.7c-1.1,0-2,0.3-2.9,0.9c-0.9,0.6-1.5,1.5-1.9,2.6c-0.4,1.1-0.6,2.9-0.6,5.3v11.2h-6.3V147.8z"/>
	<path class="st5" d="M412.3,147.8h6.3v25.3h-6.3v-2.7c-1.2,1.2-2.5,2-3.7,2.5c-1.2,0.5-2.6,0.8-4,0.8c-3.3,0-6.1-1.3-8.5-3.8
		c-2.4-2.5-3.6-5.7-3.6-9.4c0-3.9,1.2-7.1,3.5-9.6c2.3-2.5,5.1-3.7,8.4-3.7c1.5,0,2.9,0.3,4.3,0.9c1.3,0.6,2.6,1.4,3.7,2.6V147.8z
		 M405.6,153c-2,0-3.6,0.7-4.9,2.1c-1.3,1.4-1.9,3.2-1.9,5.3c0,2.2,0.7,4,2,5.4c1.3,1.4,2.9,2.1,4.9,2.1c2,0,3.6-0.7,5-2.1
		c1.3-1.4,2-3.2,2-5.4c0-2.2-0.7-4-2-5.3C409.3,153.7,407.6,153,405.6,153"/>
	<path class="st5" d="M449.7,152.9l-5.3,2.9c-1-1-2-1.8-2.9-2.2c-1-0.4-2.1-0.6-3.4-0.6c-2.4,0-4.3,0.7-5.8,2.1
		c-1.5,1.4-2.2,3.2-2.2,5.4c0,2.1,0.7,3.9,2.1,5.3c1.4,1.4,3.3,2,5.6,2c2.8,0,5-1,6.6-2.9l5,3.4c-2.7,3.5-6.5,5.3-11.5,5.3
		c-4.4,0-7.9-1.3-10.4-3.9c-2.5-2.6-3.8-5.7-3.8-9.2c0-2.4,0.6-4.7,1.8-6.8c1.2-2.1,2.9-3.7,5.1-4.9c2.2-1.2,4.6-1.8,7.4-1.8
		c2.5,0,4.8,0.5,6.8,1.5C446.8,149.6,448.4,151.1,449.7,152.9"/>
	<path class="st5" d="M453.9,147.8h5.4v3.2c0.6-1.3,1.4-2.2,2.3-2.9c1-0.7,2-1,3.2-1c0.8,0,1.7,0.2,2.6,0.7l-2,5.5
		c-0.7-0.4-1.4-0.6-1.8-0.6c-1,0-1.8,0.6-2.5,1.8c-0.7,1.2-1,3.6-1,7.1l0,1.2v10.2h-6.3V147.8z"/>
	<path class="st5" d="M482.4,147.1c2.4,0,4.6,0.6,6.7,1.8c2.1,1.2,3.7,2.8,4.9,4.9c1.2,2,1.8,4.3,1.8,6.6c0,2.4-0.6,4.6-1.8,6.7
		c-1.2,2.1-2.8,3.7-4.8,4.9c-2,1.2-4.3,1.8-6.8,1.8c-3.6,0-6.7-1.3-9.3-3.9c-2.6-2.6-3.8-5.7-3.8-9.4c0-3.9,1.4-7.2,4.3-9.9
		C476.2,148.3,479.1,147.1,482.4,147.1 M482.5,153.1c-2,0-3.6,0.7-4.9,2.1c-1.3,1.4-2,3.1-2,5.3c0,2.2,0.6,4,1.9,5.3
		c1.3,1.4,2.9,2,4.9,2c2,0,3.6-0.7,5-2.1c1.3-1.4,2-3.2,2-5.3c0-2.2-0.6-3.9-1.9-5.3C486.2,153.8,484.5,153.1,482.5,153.1"/>
	<polygon class="st5" points="501.7,138.5 508,138.5 508,147.8 511.8,147.8 511.8,153.2 508,153.2 508,173.1 501.7,173.1 
		501.7,153.2 498.4,153.2 498.4,147.8 501.7,147.8 	"/>
	<path class="st5" d="M517.6,137.4c1.1,0,2.1,0.4,2.9,1.2s1.2,1.8,1.2,2.9c0,1.1-0.4,2.1-1.2,2.9c-0.8,0.8-1.7,1.2-2.8,1.2
		c-1.1,0-2.1-0.4-2.9-1.2c-0.8-0.8-1.2-1.8-1.2-3c0-1.1,0.4-2.1,1.2-2.9C515.6,137.8,516.5,137.4,517.6,137.4 M514.4,147.8h6.3v25.3
		h-6.3V147.8z"/>
	<path class="st5" d="M532.8,147.8v2.8c1.1-1.1,2.4-2,3.7-2.6c1.3-0.6,2.8-0.9,4.3-0.9c3.3,0,6.1,1.2,8.4,3.7
		c2.3,2.5,3.5,5.7,3.5,9.6c0,3.8-1.2,6.9-3.6,9.4c-2.4,2.5-5.2,3.8-8.5,3.8c-1.5,0-2.8-0.3-4.1-0.8c-1.3-0.5-2.5-1.4-3.7-2.5v11.9
		h-6.3v-34.5H532.8z M539.5,153c-2,0-3.7,0.7-5,2c-1.3,1.4-2,3.1-2,5.3c0,2.2,0.7,4.1,2,5.4c1.3,1.4,3,2.1,5,2.1
		c1.9,0,3.6-0.7,4.9-2.1c1.3-1.4,2-3.2,2-5.4c0-2.2-0.7-3.9-2-5.3C543.1,153.7,541.4,153,539.5,153"/>
	<path class="st5" d="M569.7,147.1c2.4,0,4.6,0.6,6.7,1.8c2.1,1.2,3.7,2.8,4.9,4.9c1.2,2,1.8,4.3,1.8,6.6c0,2.4-0.6,4.6-1.8,6.7
		c-1.2,2.1-2.8,3.7-4.8,4.9c-2,1.2-4.3,1.8-6.8,1.8c-3.6,0-6.7-1.3-9.3-3.9c-2.6-2.6-3.8-5.7-3.8-9.4c0-3.9,1.4-7.2,4.3-9.9
		C563.5,148.3,566.4,147.1,569.7,147.1 M569.8,153.1c-2,0-3.6,0.7-4.9,2.1c-1.3,1.4-2,3.1-2,5.3c0,2.2,0.6,4,1.9,5.3
		c1.3,1.4,2.9,2,4.9,2c2,0,3.6-0.7,5-2.1c1.3-1.4,2-3.2,2-5.3c0-2.2-0.6-3.9-1.9-5.3C573.5,153.8,571.8,153.1,569.8,153.1"/>
	<g class="st6">
		<path class="st3" d="M345.5,86.7c-2.4,0-4.4,2-4.4,4.4s2,4.4,4.4,4.4c2.4,0,4.4-2,4.4-4.4S347.9,86.7,345.5,86.7z"/>
		<path class="st3" d="M422.8,86.7c-2.4,0-4.4,2-4.4,4.4s2,4.4,4.4,4.4c2.4,0,4.4-2,4.4-4.4S425.2,86.7,422.8,86.7z"/>
		<path class="st3" d="M453.9,99.4c-2.4,0-4.4,2-4.4,4.4c0,2.4,2,4.4,4.4,4.4s4.4-2,4.4-4.4C458.3,101.3,456.3,99.4,453.9,99.4z"/>
		<path class="st3" d="M462.9,86.7c-2.4,0-4.4,2-4.4,4.4s2,4.4,4.4,4.4c2.4,0,4.4-2,4.4-4.4S465.3,86.7,462.9,86.7z"/>
		<path class="st3" d="M481.8,95.5c2.4,0,4.4-2,4.4-4.4s-2-4.4-4.4-4.4s-4.4,2-4.4,4.4S479.3,95.5,481.8,95.5z"/>
		<path class="st3" d="M481.8,99.4c-2.4,0-4.4,2-4.4,4.4c0,2.4,2,4.4,4.4,4.4c2.4,0,4.4-2,4.4-4.4
			C486.2,101.3,484.2,99.4,481.8,99.4z"/>
		<path class="st3" d="M481.8,111.9c-2.4,0-4.4,2-4.4,4.4s2,4.4,4.4,4.4s4.4-2,4.4-4.4S484.2,111.9,481.8,111.9z"/>
		<path class="st3" d="M517.9,86.7c-2.4,0-4.4,2-4.4,4.4s2,4.4,4.4,4.4s4.4-2,4.4-4.4S520.4,86.7,517.9,86.7z"/>
		<path class="st3" d="M517.9,99.4c-2.4,0-4.4,2-4.4,4.4c0,2.4,2,4.4,4.4,4.4s4.4-2,4.4-4.4C522.3,101.3,520.4,99.4,517.9,99.4z"/>
		<path class="st3" d="M517.9,111.9c-2.4,0-4.4,2-4.4,4.4s2,4.4,4.4,4.4s4.4-2,4.4-4.4S520.4,111.9,517.9,111.9z"/>
		<path class="st3" d="M552.8,86.7c-2.4,0-4.4,2-4.4,4.4s2,4.4,4.4,4.4c2.4,0,4.4-2,4.4-4.4S555.2,86.7,552.8,86.7z"/>
		<path class="st3" d="M564.2,99.4c-2.4,0-4.4,2-4.4,4.4c0,2.4,2,4.4,4.4,4.4c2.4,0,4.4-2,4.4-4.4
			C568.6,101.3,566.6,99.4,564.2,99.4z"/>
		<path class="st3" d="M345.5,99.4c-2.4,0-4.4,2-4.4,4.4c0,2.4,2,4.4,4.4,4.4c2.4,0,4.4-2,4.4-4.4
			C349.9,101.3,347.9,99.4,345.5,99.4z"/>
		<path class="st3" d="M372.8,111.9c-2.4,0-4.4,2-4.4,4.4s2,4.4,4.4,4.4c2.4,0,4.4-2,4.4-4.4S375.2,111.9,372.8,111.9z"/>
		<path class="st3" d="M372.8,99.4c-2.4,0-4.4,2-4.4,4.4c0,2.4,2,4.4,4.4,4.4c2.4,0,4.4-2,4.4-4.4
			C377.2,101.3,375.2,99.4,372.8,99.4z"/>
		<path class="st3" d="M372.8,86.7c-2.4,0-4.4,2-4.4,4.4s2,4.4,4.4,4.4c2.4,0,4.4-2,4.4-4.4S375.2,86.7,372.8,86.7z"/>
		<path class="st3" d="M386.7,99.4c-2.4,0-4.4,2-4.4,4.4c0,2.4,2,4.4,4.4,4.4c2.4,0,4.4-2,4.4-4.4
			C391.1,101.3,389.2,99.4,386.7,99.4z"/>
	</g>
</g>
<g class="st7">
	<g>
		<defs>
			<rect id="SVGID_1_" x="102.8" y="-49.4" width="119.6" height="119.4"/>
		</defs>
		<clipPath id="SVGID_2_">
			<use xlink:href="#SVGID_1_"  style="overflow:visible;"/>
		</clipPath>
		<path class="st8" d="M155.3,67.8c0.1-1,1.1-1.7,2.1-1.7c1,0.1,1.8,1,1.7,2c-0.1,1-1,1.8-2.1,1.7C156,69.8,155.2,68.8,155.3,67.8"
			/>
		<path class="st8" d="M144.9,65.5c0.3-1,1.4-1.5,2.3-1.3c1,0.3,1.6,1.3,1.3,2.3c-0.2,1-1.3,1.6-2.4,1.3
			C145.2,67.6,144.6,66.5,144.9,65.5"/>
		<path class="st8" d="M135.1,61.3c0.5-0.9,1.6-1.3,2.5-0.8c0.9,0.5,1.3,1.5,0.9,2.5c-0.4,0.9-1.6,1.4-2.6,0.9
			C135,63.4,134.6,62.2,135.1,61.3"/>
		<path class="st8" d="M126.2,55.4c0.7-0.8,1.8-1,2.6-0.3c0.8,0.6,1,1.8,0.4,2.6c-0.6,0.9-1.8,1.1-2.7,0.4
			C125.7,57.4,125.5,56.2,126.2,55.4"/>
		<path class="st8" d="M118.5,47.9c0.8-0.7,2-0.6,2.6,0.2c0.7,0.7,0.7,1.9-0.1,2.7c-0.7,0.7-2,0.7-2.7-0.1
			C117.7,49.8,117.7,48.6,118.5,47.9"/>
		<path class="st8" d="M112.4,39.2c0.9-0.5,2-0.2,2.6,0.6c0.5,0.9,0.3,2-0.6,2.6c-0.9,0.6-2,0.3-2.6-0.6
			C111.1,40.9,111.5,39.7,112.4,39.2"/>
		<path class="st8" d="M107.9,29.5c1-0.3,2,0.2,2.4,1.1c0.4,0.9-0.1,2-1.1,2.5c-1,0.4-2.1-0.1-2.5-1.1
			C106.4,30.9,106.9,29.8,107.9,29.5"/>
		<path class="st8" d="M105.3,19.1c1-0.1,2,0.5,2.2,1.5c0.2,1-0.5,2-1.5,2.2c-1,0.2-2.1-0.4-2.2-1.5
			C103.6,20.2,104.3,19.2,105.3,19.1"/>
		<path class="st8" d="M104.7,8.4c1,0,1.9,0.9,1.8,1.9c0,1-0.8,1.9-1.8,1.9c-1,0-1.9-0.8-1.9-1.9C102.8,9.2,103.7,8.4,104.7,8.4"/>
		<path class="st8" d="M220.5,12.2c-1,0-1.9-0.9-1.8-1.9c0-1,0.8-1.9,1.8-1.9c1,0,1.9,0.8,1.9,1.9C222.4,11.4,221.5,12.3,220.5,12.2
			"/>
		<path class="st8" d="M219.1,22.8c-1-0.2-1.6-1.2-1.5-2.2c0.2-1,1.2-1.7,2.2-1.5c1,0.2,1.7,1.1,1.5,2.2
			C221.2,22.4,220.2,23.1,219.1,22.8"/>
		<path class="st8" d="M215.9,33c-0.9-0.4-1.4-1.5-1.1-2.5c0.4-0.9,1.4-1.4,2.4-1.1c1,0.3,1.5,1.5,1.1,2.5
			C218,32.9,216.9,33.4,215.9,33"/>
		<path class="st8" d="M210.8,42.4c-0.9-0.6-1.1-1.7-0.6-2.6c0.5-0.8,1.7-1.2,2.6-0.6c0.9,0.5,1.2,1.7,0.6,2.6
			C212.8,42.7,211.7,43,210.8,42.4"/>
		<path class="st8" d="M204.1,50.7c-0.7-0.7-0.8-1.9-0.1-2.7c0.7-0.8,1.8-0.8,2.6-0.2c0.8,0.7,0.9,1.9,0.1,2.7
			C206,51.4,204.8,51.5,204.1,50.7"/>
		<path class="st8" d="M195.9,57.7c-0.6-0.9-0.4-2,0.4-2.6c0.8-0.6,2-0.5,2.6,0.3c0.7,0.8,0.5,2-0.4,2.7
			C197.8,58.7,196.5,58.5,195.9,57.7"/>
		<path class="st8" d="M186.7,63c-0.4-1,0-2,0.9-2.5c0.9-0.5,2-0.1,2.5,0.8c0.5,0.9,0.1,2.1-0.9,2.6C188.3,64.4,187.1,63.9,186.7,63
			"/>
		<path class="st8" d="M176.6,66.5c-0.2-1,0.4-2,1.3-2.3c1-0.3,2,0.3,2.3,1.3c0.3,1-0.3,2.1-1.3,2.4
			C177.9,68.2,176.8,67.6,176.6,66.5"/>
		<path class="st8" d="M166,68.1c-0.1-1,0.7-2,1.7-2c1-0.1,1.9,0.6,2.1,1.7c0.1,1-0.6,2-1.7,2.1C167,70,166.1,69.2,166,68.1"/>
	</g>
</g>
<g class="st7">
	<g>
		<defs>
			<rect id="SVGID_3_" x="85.4" y="-66.9" width="154.3" height="154.3"/>
		</defs>
		<clipPath id="SVGID_4_">
			<use xlink:href="#SVGID_3_"  style="overflow:visible;"/>
		</clipPath>
		<path class="st9" d="M155.5,85.3c0.1-1,1-1.8,2-1.7c1,0.1,1.8,1,1.7,2c0,1.1-0.9,1.9-2,1.8C156.1,87.2,155.4,86.3,155.5,85.3"/>
		<path class="st9" d="M145.1,83.6c0.2-1,1.2-1.7,2.2-1.4c1,0.2,1.6,1.2,1.4,2.2c-0.2,1-1.2,1.7-2.2,1.5
			C145.5,85.6,144.9,84.6,145.1,83.6"/>
		<path class="st9" d="M135.1,80.4c0.4-1,1.5-1.5,2.4-1.1c0.9,0.3,1.5,1.4,1.1,2.4c-0.3,1-1.4,1.5-2.4,1.2
			C135.2,82.5,134.7,81.4,135.1,80.4"/>
		<path class="st9" d="M125.6,75.9c0.5-0.9,1.6-1.2,2.5-0.8c0.9,0.5,1.2,1.6,0.8,2.5c-0.5,0.9-1.6,1.3-2.6,0.8
			C125.4,78,125.1,76.8,125.6,75.9"/>
		<path class="st9" d="M116.8,70.1c0.6-0.8,1.8-1,2.6-0.4c0.8,0.6,1,1.8,0.4,2.6c-0.6,0.9-1.8,1.1-2.6,0.4
			C116.3,72.2,116.2,70.9,116.8,70.1"/>
		<path class="st9" d="M109,63.2c0.7-0.7,1.9-0.7,2.6-0.1c0.7,0.7,0.7,1.9,0,2.7c-0.7,0.8-1.9,0.8-2.7,0.1
			C108.2,65.1,108.2,63.9,109,63.2"/>
		<path class="st9" d="M102.1,55.2c0.8-0.6,2-0.5,2.6,0.3c0.6,0.8,0.5,2-0.3,2.6c-0.8,0.7-2,0.5-2.6-0.3
			C101.1,57,101.3,55.8,102.1,55.2"/>
		<path class="st9" d="M96.4,46.3c0.9-0.5,2.1-0.2,2.6,0.7c0.5,0.9,0.2,2-0.7,2.6c-0.9,0.6-2.1,0.3-2.6-0.7
			C95.2,48,95.5,46.8,96.4,46.3"/>
		<path class="st9" d="M92.1,36.8c1-0.4,2.1,0.1,2.4,1c0.4,0.9-0.1,2-1,2.4c-1,0.4-2.1,0-2.5-1C90.6,38.3,91.1,37.2,92.1,36.8"/>
		<path class="st9" d="M89.1,26.7c1-0.2,2,0.4,2.3,1.4c0.2,1-0.3,2-1.4,2.3c-1,0.3-2.1-0.3-2.3-1.3C87.4,28,88.1,26.9,89.1,26.7"/>
		<path class="st9" d="M87.5,16.3c1-0.1,1.9,0.7,2,1.7c0.1,1-0.6,1.9-1.6,2c-1,0.1-2-0.6-2.1-1.7C85.7,17.3,86.5,16.4,87.5,16.3"/>
		<path class="st9" d="M237.2,20.1c-1-0.1-1.8-1.1-1.6-2.1c0.1-1,1-1.7,2-1.7c1,0.1,1.8,1,1.7,2.1C239.2,19.4,238.3,20.2,237.2,20.1
			"/>
		<path class="st9" d="M235.2,30.3c-1-0.3-1.6-1.3-1.4-2.3c0.2-1,1.2-1.6,2.3-1.4c1,0.2,1.7,1.2,1.4,2.3
			C237.3,30,236.2,30.6,235.2,30.3"/>
		<path class="st9" d="M231.7,40.3c-1-0.4-1.4-1.5-1-2.4c0.4-0.9,1.5-1.4,2.4-1c1,0.4,1.5,1.5,1.1,2.4
			C233.8,40.2,232.6,40.7,231.7,40.3"/>
		<path class="st9" d="M226.8,49.6c-0.9-0.5-1.2-1.7-0.7-2.6c0.5-0.9,1.6-1.2,2.6-0.7c0.9,0.5,1.2,1.6,0.7,2.6
			C228.9,49.8,227.7,50.1,226.8,49.6"/>
		<path class="st9" d="M220.8,58.1c-0.8-0.7-1-1.8-0.3-2.6c0.6-0.8,1.8-0.9,2.6-0.3c0.9,0.6,1,1.8,0.3,2.6
			C222.7,58.7,221.6,58.8,220.8,58.1"/>
		<path class="st9" d="M213.5,65.8c-0.7-0.8-0.7-2,0-2.6c0.7-0.7,1.9-0.7,2.6,0.1c0.8,0.7,0.8,1.9,0,2.7
			C215.4,66.6,214.2,66.5,213.5,65.8"/>
		<path class="st9" d="M205.3,72.3c-0.6-0.9-0.4-2,0.4-2.6c0.8-0.6,2-0.4,2.6,0.4c0.6,0.8,0.5,2-0.4,2.6
			C207.1,73.4,205.9,73.2,205.3,72.3"/>
		<path class="st9" d="M196.3,77.7c-0.5-0.9-0.1-2.1,0.8-2.5c0.9-0.4,2-0.2,2.5,0.8c0.5,0.9,0.2,2.1-0.7,2.6
			C197.9,79,196.7,78.6,196.3,77.7"/>
		<path class="st9" d="M186.6,81.7c-0.3-1,0.2-2.1,1.1-2.4c0.9-0.4,2,0.1,2.4,1.1c0.4,1-0.1,2.1-1.1,2.5
			C188,83.2,186.9,82.7,186.6,81.7"/>
		<path class="st9" d="M176.4,84.3c-0.2-1,0.5-2,1.4-2.2c1-0.2,2,0.4,2.2,1.4c0.2,1-0.4,2-1.4,2.3C177.6,86.1,176.6,85.4,176.4,84.3
			"/>
		<path class="st9" d="M166,85.5c0-1,0.7-1.9,1.7-2c1-0.1,1.9,0.7,2,1.7c0.1,1-0.7,1.9-1.7,2C166.9,87.4,166,86.6,166,85.5"/>
	</g>
</g>
<g class="st7">
	<g>
		<defs>
			<rect id="SVGID_5_" x="74.3" y="-78" width="176.6" height="176.5"/>
		</defs>
		<clipPath id="SVGID_6_">
			<use xlink:href="#SVGID_5_"  style="overflow:visible;"/>
		</clipPath>
		<path class="st10" d="M155.4,96.4c0.1-1,1-1.8,2-1.7c1,0.1,1.8,0.9,1.8,2c0,1-0.9,1.9-2,1.8C156.1,98.4,155.3,97.4,155.4,96.4"/>
		<path class="st10" d="M144.8,94.9c0.2-1,1.2-1.7,2.2-1.5c1,0.2,1.7,1.2,1.5,2.2c-0.2,1-1.2,1.7-2.2,1.5
			C145.3,96.9,144.6,95.9,144.8,94.9"/>
		<path class="st10" d="M134.6,92.1c0.3-1,1.4-1.5,2.4-1.2c1,0.3,1.5,1.3,1.2,2.3c-0.3,1-1.4,1.6-2.4,1.3
			C134.8,94.1,134.3,93.1,134.6,92.1"/>
		<path class="st10" d="M124.8,88c0.5-0.9,1.6-1.3,2.5-0.9c0.9,0.4,1.3,1.5,0.9,2.5c-0.4,1-1.5,1.4-2.5,0.9
			C124.7,90.1,124.3,89,124.8,88"/>
		<path class="st10" d="M115.5,82.8c0.6-0.9,1.7-1.1,2.6-0.6c0.8,0.6,1.2,1.7,0.6,2.6c-0.5,0.9-1.7,1.2-2.6,0.6
			C115.2,84.8,114.9,83.6,115.5,82.8"/>
		<path class="st10" d="M107,76.4c0.7-0.8,1.8-0.9,2.6-0.3c0.8,0.6,0.9,1.8,0.3,2.6c-0.6,0.8-1.8,1-2.7,0.3
			C106.4,78.5,106.3,77.2,107,76.4"/>
		<path class="st10" d="M99.3,69.1c0.8-0.7,2-0.7,2.7,0.1c0.7,0.7,0.7,1.9,0,2.7c-0.7,0.8-2,0.8-2.7,0C98.5,71,98.5,69.8,99.3,69.1"
			/>
		<path class="st10" d="M92.5,60.9c0.9-0.6,2-0.4,2.6,0.4c0.6,0.8,0.5,2-0.3,2.6c-0.8,0.7-2,0.5-2.7-0.3
			C91.5,62.7,91.7,61.5,92.5,60.9"/>
		<path class="st10" d="M86.8,51.9c0.9-0.5,2.1-0.2,2.6,0.7c0.5,0.9,0.2,2-0.7,2.6c-0.9,0.5-2,0.2-2.6-0.7
			C85.6,53.5,85.9,52.4,86.8,51.9"/>
		<path class="st10" d="M82.3,42.2c1-0.4,2.1,0.1,2.4,1c0.4,0.9,0,2-1,2.5c-1,0.4-2.1,0-2.5-1C80.9,43.8,81.3,42.6,82.3,42.2"/>
		<path class="st10" d="M79,32.1c1-0.3,2.1,0.3,2.3,1.3s-0.3,2-1.3,2.3c-1,0.3-2-0.3-2.3-1.3C77.4,33.5,78,32.4,79,32.1"/>
		<path class="st10" d="M77,21.7c1-0.1,2,0.6,2.1,1.6c0.2,1-0.5,2-1.5,2.2c-1,0.2-2-0.5-2.2-1.6C75.2,22.8,75.9,21.8,77,21.7"/>
		<path class="st10" d="M76.2,11.1c1,0,1.9,0.8,1.9,1.8c0,1-0.8,1.9-1.8,2c-1.1,0.1-1.9-0.8-1.9-1.8C74.3,12,75.2,11.1,76.2,11.1"/>
		<path class="st10" d="M248.9,14.9c-1-0.1-1.9-0.9-1.8-1.9c0-1,0.9-1.8,1.9-1.8c1,0,1.9,0.9,1.8,2
			C250.8,14.1,249.9,14.9,248.9,14.9"/>
		<path class="st10" d="M247.6,25.4c-1-0.2-1.7-1.1-1.5-2.2c0.1-1,1.1-1.7,2.1-1.6c1,0.1,1.8,1.1,1.6,2.2
			C249.7,24.9,248.7,25.6,247.6,25.4"/>
		<path class="st10" d="M245.2,35.8c-1-0.3-1.6-1.4-1.3-2.3c0.3-1,1.3-1.6,2.3-1.3c1,0.3,1.6,1.3,1.3,2.3
			C247.2,35.5,246.2,36.1,245.2,35.8"/>
		<path class="st10" d="M241.4,45.7c-1-0.4-1.4-1.5-1-2.5c0.4-0.9,1.5-1.4,2.4-1c1,0.4,1.4,1.5,1,2.5
			C243.5,45.7,242.3,46.2,241.4,45.7"/>
		<path class="st10" d="M236.5,55.2c-0.9-0.5-1.2-1.7-0.7-2.6c0.5-0.9,1.7-1.2,2.6-0.7c0.9,0.5,1.2,1.7,0.7,2.6
			C238.5,55.4,237.4,55.7,236.5,55.2"/>
		<path class="st10" d="M230.4,63.9c-0.8-0.7-1-1.8-0.3-2.6c0.6-0.8,1.8-1,2.6-0.4c0.8,0.6,1.1,1.8,0.4,2.7
			C232.4,64.4,231.2,64.5,230.4,63.9"/>
		<path class="st10" d="M223.3,71.8c-0.7-0.7-0.7-1.9,0-2.7c0.7-0.7,1.9-0.8,2.7-0.1c0.8,0.7,0.8,1.9,0.1,2.7
			C225.2,72.6,224,72.6,223.3,71.8"/>
		<path class="st10" d="M215.3,78.8c-0.6-0.8-0.5-2,0.3-2.6c0.8-0.6,2-0.5,2.6,0.3c0.7,0.8,0.6,2-0.3,2.7
			C217.1,79.8,215.9,79.6,215.3,78.8"/>
		<path class="st10" d="M206.4,84.8c-0.5-0.9-0.2-2,0.6-2.6c0.9-0.6,2-0.3,2.6,0.6c0.6,0.9,0.3,2-0.6,2.6
			C208.2,86,207,85.6,206.4,84.8"/>
		<path class="st10" d="M197,89.6c-0.4-1,0-2.1,0.9-2.5c0.9-0.4,2.1,0,2.5,0.9c0.5,0.9,0.1,2.1-0.9,2.5
			C198.5,91,197.4,90.6,197,89.6"/>
		<path class="st10" d="M187,93.2c-0.3-1,0.3-2,1.2-2.3c1-0.3,2,0.2,2.4,1.2c0.3,1-0.2,2.1-1.2,2.4C188.3,94.8,187.3,94.2,187,93.2"
			/>
		<path class="st10" d="M176.6,95.6c-0.2-1,0.5-2,1.5-2.2c1-0.2,2,0.5,2.2,1.5c0.2,1-0.5,2-1.5,2.2
			C177.8,97.3,176.8,96.6,176.6,95.6"/>
		<path class="st10" d="M166,96.6c0-1.1,0.8-1.9,1.8-2c1-0.1,1.9,0.7,2,1.7c0.1,1-0.7,1.9-1.8,2C167,98.5,166,97.7,166,96.6"/>
	</g>
</g>
<g class="st7">
	<g>
		<defs>
			
				<rect id="SVGID_7_" x="670.7" y="-30.7" transform="matrix(3.670986e-02 -0.9993 0.9993 3.670986e-02 674.7956 748.6078)" width="110.1" height="109.9"/>
		</defs>
		<clipPath id="SVGID_8_">
			<use xlink:href="#SVGID_7_"  style="overflow:visible;"/>
		</clipPath>
		<path class="st11" d="M778.3,32.9c-1-0.2-1.6-1-1.5-2c0.1-0.9,1-1.6,1.9-1.5c1,0.1,1.6,1,1.5,2C780.2,32.4,779.2,33,778.3,32.9"/>
		<path class="st11" d="M775.8,42.4c-0.9-0.3-1.4-1.3-1.1-2.2c0.3-0.9,1.3-1.4,2.2-1.1c0.9,0.3,1.5,1.3,1.1,2.2
			C777.8,42.2,776.8,42.7,775.8,42.4"/>
		<path class="st11" d="M771.7,51.3c-0.8-0.5-1.1-1.6-0.7-2.4c0.5-0.8,1.5-1.2,2.3-0.7c0.8,0.4,1.2,1.5,0.7,2.4
			C773.6,51.5,772.5,51.8,771.7,51.3"/>
		<path class="st11" d="M765.9,59.3c-0.7-0.6-0.8-1.7-0.2-2.4c0.6-0.7,1.7-0.9,2.4-0.3c0.8,0.6,0.9,1.7,0.3,2.5
			C767.7,59.8,766.6,59.9,765.9,59.3"/>
		<path class="st11" d="M758.8,66.1c-0.6-0.8-0.5-1.8,0.2-2.4c0.7-0.6,1.8-0.5,2.4,0.2c0.6,0.7,0.6,1.8-0.2,2.5
			C760.5,66.9,759.4,66.8,758.8,66.1"/>
		<path class="st11" d="M750.5,71.4c-0.4-0.9-0.1-1.9,0.7-2.3c0.8-0.5,1.9-0.2,2.4,0.6c0.5,0.8,0.2,1.9-0.6,2.4
			C752.1,72.6,751,72.3,750.5,71.4"/>
		<path class="st11" d="M741.5,75.2c-0.3-0.9,0.2-1.9,1.1-2.2c0.9-0.3,1.9,0.2,2.2,1.1c0.4,0.9-0.1,1.9-1.1,2.2
			C742.7,76.7,741.7,76.1,741.5,75.2"/>
		<path class="st11" d="M731.8,77.2c-0.1-0.9,0.6-1.8,1.5-2c0.9-0.1,1.8,0.5,2,1.4c0.2,0.9-0.5,1.9-1.5,2
			C732.8,78.9,731.9,78.2,731.8,77.2"/>
		<path class="st11" d="M722,77.4c0.1-1,0.9-1.7,1.8-1.6c0.9,0,1.7,0.8,1.7,1.8c0,1-0.8,1.7-1.8,1.7C722.7,79.2,721.9,78.4,722,77.4
			"/>
		<path class="st11" d="M712.3,75.9c0.2-0.9,1.2-1.5,2.1-1.3c0.9,0.2,1.5,1.1,1.3,2.1c-0.2,0.9-1.1,1.5-2.1,1.3
			C712.6,77.8,712,76.8,712.3,75.9"/>
		<path class="st11" d="M703,72.5c0.4-0.9,1.4-1.3,2.3-0.9c0.8,0.4,1.3,1.4,0.9,2.3c-0.3,0.9-1.4,1.3-2.3,0.9
			C703,74.4,702.6,73.4,703,72.5"/>
		<path class="st11" d="M694.6,67.5c0.6-0.8,1.6-1,2.4-0.4c0.8,0.5,1,1.6,0.5,2.4c-0.5,0.8-1.6,1.1-2.4,0.5
			C694.2,69.4,694,68.3,694.6,67.5"/>
		<path class="st11" d="M687.2,61.1c0.7-0.7,1.8-0.7,2.4,0c0.7,0.6,0.7,1.7,0.1,2.4c-0.6,0.7-1.8,0.7-2.5,0
			C686.5,62.9,686.5,61.7,687.2,61.1"/>
		<path class="st11" d="M681,53.4c0.8-0.5,1.9-0.3,2.4,0.5c0.5,0.8,0.4,1.8-0.4,2.4c-0.8,0.6-1.9,0.4-2.5-0.4
			C680,55,680.2,53.9,681,53.4"/>
		<path class="st11" d="M676.5,44.7c0.9-0.4,1.9,0.1,2.3,0.9c0.4,0.8,0,1.9-0.8,2.3c-0.9,0.4-1.9,0-2.3-0.9
			C675.1,46.1,675.6,45,676.5,44.7"/>
		<path class="st11" d="M673.5,35.3c0.9-0.2,1.9,0.4,2.1,1.3c0.2,0.9-0.3,1.8-1.3,2.1c-0.9,0.3-1.9-0.3-2.1-1.3
			C672,36.4,672.6,35.5,673.5,35.3"/>
		<path class="st11" d="M672.4,25.5c1,0,1.8,0.7,1.8,1.7c0,0.9-0.6,1.8-1.6,1.8c-0.9,0.1-1.8-0.6-1.9-1.7
			C670.7,26.3,671.5,25.5,672.4,25.5"/>
		<path class="st11" d="M673.1,15.7c1,0.2,1.6,1,1.5,2c-0.1,0.9-1,1.6-1.9,1.5c-1-0.1-1.6-1-1.5-2C671.2,16.2,672.2,15.5,673.1,15.7
			"/>
		<path class="st11" d="M675.6,6.2c0.9,0.3,1.4,1.3,1.1,2.2c-0.3,0.9-1.3,1.4-2.2,1.1c-0.9-0.3-1.5-1.3-1.1-2.2
			C673.7,6.3,674.7,5.8,675.6,6.2"/>
		<path class="st11" d="M679.7-2.7c0.8,0.5,1.1,1.6,0.7,2.4c-0.5,0.8-1.5,1.2-2.3,0.7c-0.8-0.4-1.2-1.5-0.7-2.4
			C677.9-2.9,678.9-3.2,679.7-2.7"/>
		<path class="st11" d="M685.5-10.7c0.7,0.6,0.8,1.7,0.2,2.4c-0.6,0.7-1.7,0.9-2.4,0.3c-0.8-0.6-0.9-1.7-0.3-2.5
			C683.7-11.2,684.8-11.3,685.5-10.7"/>
		<path class="st11" d="M692.6-17.5c0.6,0.8,0.5,1.8-0.2,2.4c-0.7,0.6-1.8,0.5-2.4-0.2c-0.6-0.7-0.6-1.8,0.2-2.5
			C690.9-18.4,692-18.3,692.6-17.5"/>
		<path class="st11" d="M700.9-22.9c0.4,0.9,0.1,1.9-0.7,2.3c-0.8,0.5-1.9,0.2-2.4-0.6c-0.5-0.8-0.2-1.9,0.6-2.4
			C699.3-24.1,700.4-23.7,700.9-22.9"/>
		<path class="st11" d="M710-26.6c0.3,0.9-0.2,1.9-1.1,2.2c-0.9,0.3-1.9-0.2-2.2-1.1c-0.4-0.9,0.1-1.9,1.1-2.2
			C708.7-28.1,709.7-27.6,710-26.6"/>
		<path class="st11" d="M719.6-28.7c0.1,0.9-0.6,1.8-1.5,2c-0.9,0.1-1.8-0.5-2-1.4c-0.2-0.9,0.5-1.9,1.5-2
			C718.6-30.3,719.5-29.6,719.6-28.7"/>
		<path class="st11" d="M729.4-28.9c-0.1,1-0.9,1.7-1.8,1.6c-0.9,0-1.7-0.8-1.7-1.8c0-1,0.8-1.7,1.8-1.7
			C728.7-30.7,729.5-29.8,729.4-28.9"/>
		<path class="st11" d="M739.1-27.3c-0.2,0.9-1.2,1.5-2.1,1.3c-0.9-0.2-1.5-1.1-1.3-2.1c0.2-0.9,1.1-1.5,2.1-1.3
			C738.8-29.2,739.4-28.2,739.1-27.3"/>
		<path class="st11" d="M748.4-24c-0.4,0.9-1.4,1.3-2.3,0.9c-0.8-0.4-1.3-1.4-0.9-2.3c0.3-0.9,1.4-1.3,2.3-0.9
			C748.4-25.9,748.8-24.9,748.4-24"/>
		<path class="st11" d="M756.8-19c-0.6,0.8-1.6,1-2.4,0.4c-0.8-0.5-1-1.6-0.5-2.4c0.5-0.8,1.6-1.1,2.4-0.5
			C757.2-20.8,757.4-19.8,756.8-19"/>
		<path class="st11" d="M764.3-12.5c-0.7,0.7-1.8,0.7-2.4,0c-0.7-0.6-0.7-1.7-0.1-2.4c0.6-0.7,1.8-0.7,2.5,0
			C765-14.3,765-13.2,764.3-12.5"/>
		<path class="st11" d="M770.4-4.8c-0.8,0.5-1.9,0.3-2.4-0.5c-0.5-0.8-0.4-1.8,0.4-2.4c0.8-0.6,1.9-0.4,2.5,0.4
			C771.4-6.4,771.2-5.3,770.4-4.8"/>
		<path class="st11" d="M775,3.9c-0.9,0.4-1.9-0.1-2.3-0.9c-0.4-0.8,0-1.9,0.8-2.3c0.9-0.4,1.9,0,2.3,0.9
			C776.3,2.5,775.8,3.5,775,3.9"/>
		<path class="st11" d="M777.9,13.3c-0.9,0.2-1.9-0.4-2.1-1.3c-0.2-0.9,0.3-1.8,1.3-2.1c0.9-0.3,1.9,0.3,2.1,1.3
			C779.4,12.1,778.8,13.1,777.9,13.3"/>
		<path class="st11" d="M779,23.1c-1,0-1.8-0.7-1.8-1.7c0-0.9,0.6-1.8,1.6-1.8c0.9-0.1,1.8,0.6,1.9,1.7
			C780.7,22.2,779.9,23.1,779,23.1"/>
	</g>
</g>
<g class="st7">
	<g>
		<defs>
			
				<rect id="SVGID_9_" x="654.6" y="-46.7" transform="matrix(3.670986e-02 -0.9993 0.9993 3.670986e-02 674.7587 748.5664)" width="142" height="142"/>
		</defs>
		<clipPath id="SVGID_10_">
			<use xlink:href="#SVGID_9_"  style="overflow:visible;"/>
		</clipPath>
		<path class="st12" d="M794.4,33.4c-1-0.1-1.6-1-1.5-1.9c0.1-0.9,1-1.6,1.9-1.5c1,0.1,1.7,0.9,1.6,1.9
			C796.2,32.8,795.3,33.5,794.4,33.4"/>
		<path class="st12" d="M792.5,42.8c-0.9-0.3-1.5-1.2-1.2-2.1c0.2-0.9,1.1-1.5,2.1-1.3c0.9,0.2,1.6,1.2,1.3,2.1
			C794.3,42.5,793.4,43.1,792.5,42.8"/>
		<path class="st12" d="M789.2,51.9c-0.9-0.4-1.3-1.4-0.9-2.2c0.3-0.9,1.3-1.3,2.2-1c0.9,0.3,1.3,1.3,1,2.3
			C791.2,51.9,790.1,52.3,789.2,51.9"/>
		<path class="st12" d="M784.8,60.5c-0.8-0.5-1.1-1.5-0.6-2.3c0.5-0.8,1.5-1.1,2.3-0.6c0.8,0.5,1.1,1.5,0.7,2.4
			C786.7,60.8,785.6,61,784.8,60.5"/>
		<path class="st12" d="M779.1,68.4c-0.7-0.6-0.8-1.7-0.3-2.4c0.6-0.7,1.6-0.9,2.4-0.3c0.8,0.6,0.9,1.7,0.3,2.4
			C781,68.9,779.9,69,779.1,68.4"/>
		<path class="st12" d="M772.5,75.4c-0.6-0.7-0.6-1.8,0-2.4c0.7-0.6,1.8-0.6,2.4,0.1c0.7,0.7,0.7,1.8,0,2.5
			C774.3,76.2,773.1,76.1,772.5,75.4"/>
		<path class="st12" d="M764.9,81.4c-0.5-0.8-0.4-1.9,0.4-2.4c0.7-0.5,1.8-0.4,2.4,0.4c0.6,0.8,0.4,1.8-0.4,2.4
			C766.6,82.4,765.5,82.2,764.9,81.4"/>
		<path class="st12" d="M756.6,86.3c-0.4-0.9-0.1-1.9,0.7-2.3c0.8-0.4,1.9-0.1,2.3,0.7c0.5,0.8,0.2,1.9-0.7,2.3
			C758.1,87.5,757,87.2,756.6,86.3"/>
		<path class="st12" d="M747.7,90c-0.3-0.9,0.2-1.9,1-2.2c0.9-0.3,1.9,0.1,2.2,1c0.4,0.9-0.1,1.9-1,2.2C749,91.4,748,90.9,747.7,90"
			/>
		<path class="st12" d="M738.3,92.4c-0.2-0.9,0.4-1.9,1.3-2c0.9-0.2,1.8,0.4,2,1.3c0.2,0.9-0.4,1.9-1.3,2.1
			C739.4,94,738.5,93.4,738.3,92.4"/>
		<path class="st12" d="M728.7,93.5c0-1,0.7-1.8,1.6-1.8c0.9-0.1,1.7,0.6,1.8,1.6c0.1,1-0.6,1.8-1.6,1.9
			C729.6,95.2,728.7,94.5,728.7,93.5"/>
		<path class="st12" d="M719,93.2c0.1-0.9,0.9-1.6,1.8-1.6c0.9,0.1,1.6,0.9,1.6,1.8c0,1-0.9,1.7-1.8,1.6
			C719.6,95.1,718.9,94.2,719,93.2"/>
		<path class="st12" d="M709.5,91.7c0.2-0.9,1.1-1.5,2-1.3c0.9,0.2,1.5,1.1,1.3,2.1c-0.2,1-1.1,1.6-2,1.3S709.3,92.6,709.5,91.7"/>
		<path class="st12" d="M700.3,88.7c0.4-0.9,1.3-1.4,2.2-1c0.9,0.3,1.3,1.3,1,2.2c-0.3,0.9-1.3,1.4-2.2,1.1
			C700.4,90.6,699.9,89.6,700.3,88.7"/>
		<path class="st12" d="M691.6,84.6c0.5-0.8,1.5-1.1,2.3-0.7c0.8,0.4,1.1,1.4,0.7,2.3c-0.4,0.9-1.5,1.2-2.4,0.8
			C691.4,86.5,691.1,85.4,691.6,84.6"/>
		<path class="st12" d="M683.5,79.2c0.6-0.8,1.7-0.9,2.4-0.4c0.8,0.5,0.9,1.6,0.4,2.4c-0.5,0.8-1.6,1-2.4,0.4
			C683.1,81.1,682.9,80,683.5,79.2"/>
		<path class="st12" d="M676.3,72.8c0.7-0.7,1.8-0.7,2.4,0c0.7,0.6,0.7,1.7,0,2.4c-0.6,0.7-1.8,0.7-2.5,0.1
			C675.6,74.6,675.6,73.5,676.3,72.8"/>
		<path class="st12" d="M670,65.5c0.8-0.6,1.8-0.4,2.4,0.3c0.6,0.7,0.4,1.8-0.3,2.4c-0.7,0.6-1.8,0.5-2.5-0.3
			C669,67.2,669.2,66,670,65.5"/>
		<path class="st12" d="M664.8,57.3c0.8-0.5,1.9-0.2,2.3,0.6c0.5,0.8,0.2,1.8-0.6,2.4c-0.8,0.5-1.9,0.2-2.4-0.6
			C663.6,58.9,664,57.8,664.8,57.3"/>
		<path class="st12" d="M660.8,48.5c0.9-0.3,1.9,0.1,2.2,0.9c0.3,0.9-0.1,1.9-1,2.2c-0.9,0.4-1.9,0-2.3-0.9
			C659.4,49.9,659.9,48.9,660.8,48.5"/>
		<path class="st12" d="M658,39.3c0.9-0.2,1.9,0.4,2.1,1.3c0.2,0.9-0.4,1.8-1.3,2.1c-0.9,0.3-1.9-0.3-2.1-1.3
			C656.5,40.4,657.1,39.5,658,39.3"/>
		<path class="st12" d="M656.6,29.7c1-0.1,1.8,0.6,1.9,1.5c0.1,0.9-0.6,1.8-1.5,1.9c-0.9,0.1-1.9-0.6-1.9-1.5
			C655,30.6,655.7,29.8,656.6,29.7"/>
		<path class="st12" d="M656.6,20c1,0.1,1.7,0.9,1.6,1.8c0,0.9-0.8,1.7-1.8,1.7c-1,0-1.7-0.8-1.7-1.8C654.8,20.7,655.6,20,656.6,20"
			/>
		<path class="st12" d="M657.8,10.4c0.9,0.2,1.5,1.1,1.4,2c-0.2,0.9-1,1.5-2,1.4c-0.9-0.1-1.6-1-1.4-2
			C655.9,10.9,656.9,10.2,657.8,10.4"/>
		<path class="st12" d="M660.4,1.1c0.9,0.3,1.4,1.3,1.1,2.2c-0.3,0.9-1.3,1.4-2.2,1.1c-0.9-0.3-1.4-1.2-1.1-2.2
			C658.5,1.3,659.5,0.8,660.4,1.1"/>
		<path class="st12" d="M664.2-7.7c0.8,0.4,1.2,1.5,0.8,2.3c-0.4,0.8-1.4,1.2-2.3,0.8c-0.9-0.4-1.3-1.4-0.8-2.3
			C662.4-7.8,663.4-8.2,664.2-7.7"/>
		<path class="st12" d="M669.3-16c0.8,0.6,1,1.6,0.5,2.4c-0.5,0.7-1.6,1-2.4,0.5c-0.8-0.5-1.1-1.6-0.5-2.4
			C667.4-16.3,668.5-16.5,669.3-16"/>
		<path class="st12" d="M675.5-23.4c0.7,0.7,0.7,1.8,0.1,2.4c-0.6,0.7-1.7,0.8-2.4,0.1c-0.7-0.6-0.8-1.8-0.2-2.5
			C673.7-24.1,674.8-24.1,675.5-23.4"/>
		<path class="st12" d="M682.6-30c0.6,0.8,0.5,1.8-0.2,2.4c-0.7,0.6-1.8,0.5-2.4-0.2c-0.6-0.7-0.6-1.8,0.2-2.5
			C680.9-30.8,682-30.7,682.6-30"/>
		<path class="st12" d="M690.6-35.4c0.5,0.8,0.2,1.9-0.6,2.4c-0.8,0.5-1.8,0.3-2.4-0.5c-0.5-0.8-0.3-1.9,0.5-2.4
			C689-36.5,690.1-36.3,690.6-35.4"/>
		<path class="st12" d="M699.2-39.7c0.4,0.9,0,1.9-0.9,2.3c-0.8,0.4-1.8,0-2.3-0.9c-0.4-0.9,0-1.9,0.9-2.3
			C697.8-41.1,698.9-40.6,699.2-39.7"/>
		<path class="st12" d="M708.4-42.8c0.2,0.9-0.3,1.8-1.2,2.1c-0.9,0.3-1.8-0.3-2.1-1.2c-0.3-0.9,0.2-1.9,1.2-2.2
			C707.2-44.3,708.1-43.7,708.4-42.8"/>
		<path class="st12" d="M717.9-44.6c0.1,0.9-0.6,1.8-1.5,2s-1.8-0.5-1.9-1.5c-0.2-0.9,0.5-1.8,1.5-2
			C716.9-46.2,717.8-45.5,717.9-44.6"/>
		<path class="st12" d="M727.5-45c0,1-0.8,1.7-1.7,1.7c-0.9,0-1.7-0.8-1.7-1.7c0-1,0.7-1.8,1.7-1.7C726.8-46.7,727.6-45.9,727.5-45"
			/>
		<path class="st12" d="M737.2-44c-0.2,0.9-1,1.6-1.9,1.4c-0.9-0.1-1.6-1-1.5-1.9c0.1-1,1-1.6,2-1.5C736.7-45.9,737.3-45,737.2-44"
			/>
		<path class="st12" d="M746.6-41.8c-0.3,0.9-1.2,1.4-2.1,1.2c-0.9-0.2-1.4-1.2-1.2-2.1c0.2-0.9,1.2-1.5,2.1-1.2
			C746.4-43.7,746.9-42.7,746.6-41.8"/>
		<path class="st12" d="M755.6-38.3c-0.4,0.9-1.4,1.2-2.3,0.9c-0.8-0.4-1.2-1.4-0.9-2.3c0.4-0.9,1.4-1.3,2.3-0.9
			C755.6-40.2,756-39.1,755.6-38.3"/>
		<path class="st12" d="M764-33.5c-0.5,0.8-1.6,1-2.4,0.6c-0.8-0.5-1-1.6-0.5-2.4s1.6-1.1,2.4-0.6C764.3-35.4,764.5-34.3,764-33.5"
			/>
		<path class="st12" d="M771.6-27.6c-0.6,0.7-1.7,0.8-2.4,0.2c-0.7-0.6-0.8-1.7-0.2-2.4c0.6-0.8,1.7-0.9,2.4-0.2
			C772.2-29.4,772.3-28.3,771.6-27.6"/>
		<path class="st12" d="M778.4-20.7c-0.7,0.6-1.8,0.6-2.4-0.1c-0.6-0.7-0.6-1.8,0.1-2.4c0.7-0.7,1.8-0.6,2.5,0.1
			C779.2-22.4,779.1-21.3,778.4-20.7"/>
		<path class="st12" d="M784.2-12.9c-0.8,0.5-1.9,0.3-2.4-0.5c-0.5-0.8-0.3-1.8,0.5-2.4c0.8-0.6,1.9-0.4,2.4,0.4
			C785.2-14.5,785-13.4,784.2-12.9"/>
		<path class="st12" d="M788.8-4.4c-0.9,0.4-1.9,0-2.3-0.8c-0.4-0.8-0.1-1.8,0.8-2.3c0.8-0.4,1.9-0.1,2.3,0.8
			C790-5.9,789.6-4.8,788.8-4.4"/>
		<path class="st12" d="M792.2,4.6c-0.9,0.3-1.9-0.2-2.1-1.1c-0.3-0.9,0.2-1.8,1.1-2.2c0.9-0.3,1.9,0.2,2.2,1.1
			C793.6,3.4,793.1,4.4,792.2,4.6"/>
		<path class="st12" d="M794.2,14.1c-1,0.1-1.8-0.5-2-1.4c-0.2-0.9,0.4-1.8,1.4-2c0.9-0.2,1.9,0.4,2,1.4
			C795.9,13,795.2,13.9,794.2,14.1"/>
		<path class="st12" d="M795,23.7c-1,0-1.7-0.7-1.8-1.7c0-0.9,0.7-1.7,1.7-1.8c1-0.1,1.8,0.7,1.8,1.7C796.7,22.9,796,23.7,795,23.7"
			/>
	</g>
</g>
</svg>
