<?xml version="1.0" encoding="utf-8"?>
<!-- Generator: Adobe Illustrator 25.0.0, SVG Export Plug-In . SVG Version: 6.00 Build 0)  -->
<svg version="1.1" id="Capa_1" xmlns="http://www.w3.org/2000/svg" xmlns:xlink="http://www.w3.org/1999/xlink" x="0px" y="0px"
	 viewBox="0 0 401.2 220" style="enable-background:new 0 0 401.2 220;" xml:space="preserve">
<style type="text/css">
	.st0{opacity:0.4;fill:#232856;enable-background:new    ;}
	.st1{opacity:0.5;fill:#232856;enable-background:new    ;}
	.st2{fill:#FFFFFF;}
	.st3{fill:#88C9B4;}
	.st4{fill:#70C0A3;}
	.st5{fill:#54B3E6;}
	.st6{opacity:0.7;}
</style>
<circle class="st0" cx="192.5" cy="107.1" r="92.7"/>
<circle class="st1" cx="73.1" cy="162.6" r="21.9"/>
<g>
	<circle class="st1" cx="307.8" cy="58.3" r="21.9"/>
	<path class="st2" d="M105.8,111.7c1.6,1.8,2.4,4.2,2.4,7.1c0,3.6-1.3,6.4-4,8.4c-2.6,2-6.6,2.9-11.8,2.9h-19V87.4h17.8
		c4.6,0,8.3,0.9,10.8,2.8c2.6,1.9,3.9,4.6,3.9,8.1c0,2.4-0.6,4.5-1.9,6.2s-3,2.9-5.2,3.6C101.9,108.6,104.2,109.8,105.8,111.7
		 M76.5,90v17h14.6c3.7,0,6.6-0.7,8.6-2.2c2-1.4,3-3.6,3-6.4s-1-4.9-3-6.3s-4.9-2.2-8.6-2.2L76.5,90L76.5,90z M101.9,125.2
		c2.1-1.4,3.2-3.7,3.2-6.7s-1.1-5.2-3.2-6.7c-2.1-1.4-5.3-2.1-9.4-2.1H76.7v17.6h15.9C96.6,127.4,99.8,126.7,101.9,125.2"/>
	<path class="st2" d="M149.6,130.1l-10.2-14.3c-1.5,0.2-2.9,0.3-4.2,0.3H123v14h-3.1V87.4h15.3c5.4,0,9.6,1.3,12.6,3.8
		c3.1,2.5,4.6,6.1,4.6,10.6c0,3.4-0.9,6.2-2.6,8.5s-4.2,3.9-7.4,4.9l10.7,15h-3.5V130.1z M135.3,113.4c4.6,0,8-1,10.4-3
		s3.6-4.9,3.6-8.6s-1.2-6.6-3.6-8.6s-5.9-3-10.4-3h-12.2v23.2C123.1,113.4,135.3,113.4,135.3,113.4z"/>
	<path class="st2" d="M190.9,118.1h-24.7l-5.4,12h-3.4l19.7-42.7h3.1l19.7,42.7h-3.4L190.9,118.1z M189.8,115.4l-11.2-24.7
		l-11.2,24.7C167.4,115.4,189.8,115.4,189.8,115.4z"/>
	<rect x="208.2" y="87.4" class="st2" width="3.1" height="42.7"/>
	<polygon class="st2" points="226.8,87.4 229.9,87.4 229.9,127.3 254.5,127.3 254.5,130.1 226.8,130.1 	"/>
	<polygon class="st2" points="263.1,87.4 266.2,87.4 266.2,127.3 290.8,127.3 290.8,130.1 263.1,130.1 	"/>
	<polygon class="st2" points="329,127.3 329,130.1 299.5,130.1 299.5,87.4 328,87.4 328,90.2 302.5,90.2 302.5,107 325.3,107 
		325.3,109.8 302.5,109.8 302.5,127.3 	"/>
	<polygon class="st3" points="76.9,54.3 76.9,58.6 84.5,58.6 84.5,61.6 76.9,61.6 76.9,67.6 73.1,67.6 73.1,51.2 85.5,51.2 
		85.5,54.3 	"/>
	<path class="st3" d="M93.6,66.8c-1.4-0.7-2.4-1.7-3.2-3c-0.8-1.3-1.2-2.7-1.2-4.3s0.4-3.1,1.2-4.3c0.8-1.3,1.8-2.3,3.2-3
		c1.4-0.7,2.9-1.1,4.6-1.1s3.2,0.4,4.6,1.1c1.4,0.7,2.4,1.7,3.2,3c0.8,1.3,1.2,2.7,1.2,4.3s-0.4,3.1-1.2,4.3c-0.8,1.3-1.9,2.3-3.2,3
		c-1.4,0.7-2.9,1.1-4.6,1.1S95,67.5,93.6,66.8 M100.8,64c0.8-0.4,1.4-1.1,1.8-1.9c0.4-0.8,0.7-1.7,0.7-2.7s-0.2-1.9-0.7-2.7
		c-0.4-0.8-1.1-1.4-1.8-1.9c-0.8-0.4-1.7-0.7-2.6-0.7c-1,0-1.8,0.2-2.6,0.7c-0.8,0.4-1.4,1.1-1.8,1.9c-0.4,0.8-0.7,1.7-0.7,2.7
		s0.2,1.9,0.7,2.7s1.1,1.4,1.8,1.9c0.8,0.4,1.7,0.7,2.6,0.7C99.2,64.7,100,64.4,100.8,64"/>
	<path class="st3" d="M122.8,67.6l-3.2-4.6h-0.2h-3.2v4.6h-3.8V51.2h7.1c1.5,0,2.7,0.2,3.8,0.7c1.1,0.5,1.9,1.2,2.5,2.1
		s0.9,1.9,0.9,3.2c0,1.2-0.3,2.3-0.9,3.2s-1.4,1.6-2.5,2l3.7,5.3h-4.2V67.6z M121.9,55c-0.6-0.5-1.5-0.7-2.6-0.7h-3.1V60h3.1
		c1.1,0,2-0.2,2.6-0.8c0.6-0.5,0.9-1.2,0.9-2.1C122.8,56.2,122.5,55.5,121.9,55"/>
	<path class="st3" d="M135.3,66.8c-1.4-0.7-2.4-1.7-3.2-3c-0.8-1.3-1.2-2.7-1.2-4.3s0.4-3.1,1.2-4.3c0.8-1.3,1.8-2.3,3.2-3
		s2.9-1.1,4.6-1.1s3.2,0.4,4.6,1.1c1.4,0.7,2.4,1.7,3.2,3c0.8,1.3,1.2,2.7,1.2,4.3s-0.4,3.1-1.2,4.3c-0.8,1.3-1.9,2.3-3.2,3
		c-1.4,0.7-2.9,1.1-4.6,1.1S136.6,67.5,135.3,66.8 M142.5,64c0.8-0.4,1.4-1.1,1.8-1.9c0.4-0.8,0.7-1.7,0.7-2.7s-0.2-1.9-0.7-2.7
		c-0.4-0.8-1.1-1.4-1.8-1.9c-0.8-0.4-1.7-0.7-2.6-0.7c-1,0-1.8,0.2-2.6,0.7c-0.8,0.4-1.4,1.1-1.8,1.9c-0.4,0.8-0.7,1.7-0.7,2.7
		s0.2,1.9,0.7,2.7c0.4,0.8,1.1,1.4,1.8,1.9c0.8,0.4,1.7,0.7,2.6,0.7C140.8,64.7,141.7,64.4,142.5,64"/>
	<polygon class="st3" points="178.8,51.2 171.7,67.6 167.9,67.6 160.9,51.2 165,51.2 170,62.9 175,51.2 	"/>
	<rect x="182.5" y="51.2" class="st3" width="3.8" height="16.4"/>
	<path class="st3" d="M203,67.6l-3.2-4.6h-0.2h-3.3v4.6h-3.8V51.2h7.1c1.5,0,2.7,0.2,3.8,0.7c1.1,0.5,1.9,1.2,2.5,2.1
		s0.9,1.9,0.9,3.2c0,1.2-0.3,2.3-0.9,3.2s-1.4,1.6-2.5,2l3.7,5.3H203V67.6z M202,55c-0.6-0.5-1.5-0.7-2.6-0.7h-3.1V60h3.1
		c1.1,0,2-0.2,2.6-0.8c0.6-0.5,0.9-1.2,0.9-2.1C202.9,56.2,202.6,55.5,202,55"/>
	<polygon class="st4" points="215.2,54.3 210,54.3 210,51.2 224.3,51.2 224.3,54.3 219,54.3 219,67.6 215.2,67.6 	"/>
	<path class="st3" d="M230.2,66c-1.3-1.3-2-3.1-2-5.6v-9.2h3.8v9c0,2.9,1.2,4.4,3.7,4.4c1.2,0,2.1-0.4,2.7-1.1
		c0.6-0.7,0.9-1.8,0.9-3.3v-9h3.7v9.2c0,2.4-0.7,4.3-2,5.6c-1.3,1.3-3.1,1.9-5.5,1.9C233.3,67.9,231.5,67.2,230.2,66"/>
	<path class="st3" d="M259.6,64.1H252l-1.5,3.5h-3.9l7.3-16.4h3.7l7.3,16.4h-4L259.6,64.1z M258.5,61.2l-2.6-6.3l-2.6,6.3H258.5z"/>
	<polygon class="st3" points="269.2,51.2 273,51.2 273,64.5 281.2,64.5 281.2,67.6 269.2,67.6 	"/>
	<path class="st2" d="M303.8,49.7v17.9H303v-3.4c-0.5,1.1-1.2,2-2.1,2.6c-1,0.6-2,0.9-3.3,0.9c-1.1,0-2.2-0.3-3.1-0.8
		c-0.9-0.5-1.7-1.3-2.2-2.3s-0.8-2.1-0.8-3.3s0.3-2.3,0.8-3.3s1.3-1.7,2.2-2.3c0.9-0.5,2-0.8,3.1-0.8c1.2,0,2.3,0.3,3.2,0.9
		c1,0.6,1.7,1.5,2.1,2.5v-8.7h0.9V49.7z M300.3,66.3c0.8-0.5,1.5-1.1,1.9-2c0.5-0.9,0.7-1.8,0.7-2.9c0-1.1-0.2-2.1-0.7-2.9
		c-0.5-0.8-1.1-1.5-1.9-2c-0.8-0.5-1.7-0.7-2.7-0.7s-1.9,0.2-2.7,0.7s-1.5,1.1-1.9,2c-0.5,0.8-0.7,1.8-0.7,2.9
		c0,1.1,0.2,2.1,0.7,2.9c0.5,0.9,1.1,1.5,1.9,2c0.8,0.5,1.7,0.7,2.7,0.7C298.7,67,299.5,66.7,300.3,66.3"/>
	<path class="st2" d="M318,61.5h-11c0,1.1,0.3,2,0.7,2.8c0.5,0.8,1.1,1.5,2,2c0.8,0.5,1.8,0.7,2.8,0.7c0.9,0,1.6-0.2,2.4-0.5
		c0.7-0.3,1.3-0.8,1.8-1.4l0.5,0.5c-0.6,0.7-1.2,1.2-2.1,1.5c-0.8,0.4-1.7,0.5-2.6,0.5c-1.2,0-2.3-0.3-3.3-0.8s-1.7-1.3-2.3-2.3
		c-0.5-1-0.8-2.1-0.8-3.3s0.3-2.3,0.8-3.3s1.2-1.7,2.1-2.3c0.9-0.5,1.9-0.8,3-0.8s2.1,0.3,3,0.8s1.6,1.3,2.1,2.2s0.8,2,0.8,3.2
		L318,61.5L318,61.5z M309.7,56.4c-0.8,0.4-1.4,1-1.8,1.8c-0.5,0.8-0.7,1.7-0.7,2.6h10.2c-0.1-1-0.3-1.8-0.8-2.6s-1.1-1.4-1.8-1.8
		c-0.7-0.4-1.6-0.7-2.5-0.7C311.2,55.7,310.5,55.9,309.7,56.4"/>
	<path class="st2" d="M85.7,158.3l-7.7,17c-0.5,1.2-1.2,2.1-1.9,2.6c-0.7,0.5-1.5,0.8-2.5,0.8c-0.7,0-1.3-0.1-1.8-0.3
		c-0.6-0.2-1.1-0.5-1.4-1l0.5-0.7c0.4,0.4,0.8,0.7,1.2,0.9c0.4,0.2,0.9,0.3,1.5,0.3c0.7,0,1.4-0.2,1.9-0.6s1-1.1,1.5-2.2l0.9-2
		l-6.7-14.7h1l6.2,13.7l6.2-13.7h1.1V158.3z"/>
	<path class="st5" d="M100.1,147.8h6.3v2.9c1.1-1.2,2.3-2.1,3.6-2.7c1.3-0.6,2.8-0.9,4.3-0.9c1.6,0,3,0.4,4.3,1.2s2.3,1.9,3.1,3.4
		c1-1.5,2.2-2.6,3.7-3.4c1.5-0.8,3.1-1.2,4.8-1.2c1.8,0,3.4,0.4,4.7,1.3c1.4,0.8,2.3,1.9,2.9,3.3c0.6,1.3,0.9,3.5,0.9,6.6v14.8h-6.4
		v-12.8c0-2.9-0.4-4.8-1.1-5.8s-1.8-1.5-3.2-1.5c-1.1,0-2.1,0.3-2.9,0.9c-0.9,0.6-1.5,1.5-1.9,2.6s-0.6,2.8-0.6,5.3v11.4h-6.4V161
		c0-2.3-0.2-3.9-0.5-4.9s-0.8-1.8-1.5-2.3s-1.5-0.7-2.4-0.7c-1.1,0-2,0.3-2.9,0.9c-0.9,0.6-1.5,1.5-1.9,2.6s-0.6,2.9-0.6,5.3v11.2
		h-6.3V147.8z"/>
	<path class="st5" d="M163.5,147.8h6.3v25.3h-6.3v-2.7c-1.2,1.2-2.5,2-3.7,2.5s-2.6,0.8-4,0.8c-3.3,0-6.1-1.3-8.5-3.8
		s-3.6-5.7-3.6-9.4c0-3.9,1.2-7.1,3.5-9.6s5.1-3.7,8.4-3.7c1.5,0,2.9,0.3,4.3,0.9c1.3,0.6,2.6,1.4,3.7,2.6L163.5,147.8L163.5,147.8z
		 M156.8,153c-2,0-3.6,0.7-4.9,2.1c-1.3,1.4-1.9,3.2-1.9,5.3c0,2.2,0.7,4,2,5.4s2.9,2.1,4.9,2.1s3.6-0.7,5-2.1c1.3-1.4,2-3.2,2-5.4
		s-0.7-4-2-5.3C160.5,153.7,158.8,153,156.8,153"/>
	<path class="st5" d="M200.9,152.9l-5.3,2.9c-1-1-2-1.8-2.9-2.2c-1-0.4-2.1-0.6-3.4-0.6c-2.4,0-4.3,0.7-5.8,2.1
		c-1.5,1.4-2.2,3.2-2.2,5.4c0,2.1,0.7,3.9,2.1,5.3c1.4,1.4,3.3,2,5.6,2c2.8,0,5-1,6.6-2.9l5,3.4c-2.7,3.5-6.5,5.3-11.5,5.3
		c-4.4,0-7.9-1.3-10.4-3.9c-2.5-2.6-3.8-5.7-3.8-9.2c0-2.4,0.6-4.7,1.8-6.8c1.2-2.1,2.9-3.7,5.1-4.9s4.6-1.8,7.4-1.8
		c2.5,0,4.8,0.5,6.8,1.5C198,149.6,199.6,151.1,200.9,152.9"/>
	<path class="st5" d="M205.1,147.8h5.4v3.2c0.6-1.3,1.4-2.2,2.3-2.9c1-0.7,2-1,3.2-1c0.8,0,1.7,0.2,2.6,0.7l-2,5.5
		c-0.7-0.4-1.4-0.6-1.8-0.6c-1,0-1.8,0.6-2.5,1.8s-1,3.6-1,7.1v1.2V173h-6.3L205.1,147.8L205.1,147.8z"/>
	<path class="st5" d="M233.6,147.1c2.4,0,4.6,0.6,6.7,1.8s3.7,2.8,4.9,4.9c1.2,2,1.8,4.3,1.8,6.6c0,2.4-0.6,4.6-1.8,6.7
		c-1.2,2.1-2.8,3.7-4.8,4.9s-4.3,1.8-6.8,1.8c-3.6,0-6.7-1.3-9.3-3.9c-2.6-2.6-3.8-5.7-3.8-9.4c0-3.9,1.4-7.2,4.3-9.9
		C227.4,148.3,230.3,147.1,233.6,147.1 M233.7,153.1c-2,0-3.6,0.7-4.9,2.1c-1.3,1.4-2,3.1-2,5.3s0.6,4,1.9,5.3c1.3,1.4,2.9,2,4.9,2
		s3.6-0.7,5-2.1c1.3-1.4,2-3.2,2-5.3c0-2.2-0.6-3.9-1.9-5.3C237.4,153.8,235.7,153.1,233.7,153.1"/>
	<polygon class="st5" points="252.9,138.5 259.2,138.5 259.2,147.8 263,147.8 263,153.2 259.2,153.2 259.2,173.1 252.9,173.1 
		252.9,153.2 249.6,153.2 249.6,147.8 252.9,147.8 	"/>
	<path class="st5" d="M268.8,137.4c1.1,0,2.1,0.4,2.9,1.2s1.2,1.8,1.2,2.9c0,1.1-0.4,2.1-1.2,2.9c-0.8,0.8-1.7,1.2-2.8,1.2
		s-2.1-0.4-2.9-1.2c-0.8-0.8-1.2-1.8-1.2-3c0-1.1,0.4-2.1,1.2-2.9C266.8,137.8,267.8,137.4,268.8,137.4 M265.7,147.8h6.3v25.3h-6.3
		V147.8z"/>
	<path class="st5" d="M284,147.8v2.8c1.1-1.1,2.4-2,3.7-2.6s2.8-0.9,4.3-0.9c3.3,0,6.1,1.2,8.4,3.7c2.3,2.5,3.5,5.7,3.5,9.6
		c0,3.8-1.2,6.9-3.6,9.4c-2.4,2.5-5.2,3.8-8.5,3.8c-1.5,0-2.8-0.3-4.1-0.8s-2.5-1.4-3.7-2.5v11.9h-6.3v-34.5h6.3V147.8z M290.8,153
		c-2,0-3.7,0.7-5,2c-1.3,1.4-2,3.1-2,5.3s0.7,4.1,2,5.4c1.3,1.4,3,2.1,5,2.1c1.9,0,3.6-0.7,4.9-2.1c1.3-1.4,2-3.2,2-5.4
		s-0.7-3.9-2-5.3C294.3,153.7,292.7,153,290.8,153"/>
	<path class="st5" d="M321,147.1c2.4,0,4.6,0.6,6.7,1.8c2.1,1.2,3.7,2.8,4.9,4.9c1.2,2,1.8,4.3,1.8,6.6c0,2.4-0.6,4.6-1.8,6.7
		c-1.2,2.1-2.8,3.7-4.8,4.9s-4.3,1.8-6.8,1.8c-3.6,0-6.7-1.3-9.3-3.9c-2.6-2.6-3.8-5.7-3.8-9.4c0-3.9,1.4-7.2,4.3-9.9
		C314.8,148.3,317.7,147.1,321,147.1 M321,153.1c-2,0-3.6,0.7-4.9,2.1c-1.3,1.4-2,3.1-2,5.3s0.6,4,1.9,5.3c1.3,1.4,2.9,2,4.9,2
		s3.6-0.7,5-2.1c1.3-1.4,2-3.2,2-5.3c0-2.2-0.6-3.9-1.9-5.3C324.8,153.8,323,153.1,321,153.1"/>
	<g class="st6">
		<path class="st3" d="M96.7,86.7c-2.4,0-4.4,2-4.4,4.4s2,4.4,4.4,4.4s4.4-2,4.4-4.4S99.1,86.7,96.7,86.7z"/>
		<path class="st3" d="M174,86.7c-2.4,0-4.4,2-4.4,4.4s2,4.4,4.4,4.4s4.4-2,4.4-4.4S176.4,86.7,174,86.7z"/>
		<path class="st3" d="M205.1,99.4c-2.4,0-4.4,2-4.4,4.4s2,4.4,4.4,4.4s4.4-2,4.4-4.4C209.5,101.3,207.5,99.4,205.1,99.4z"/>
		<path class="st3" d="M214.1,86.7c-2.4,0-4.4,2-4.4,4.4s2,4.4,4.4,4.4s4.4-2,4.4-4.4S216.5,86.7,214.1,86.7z"/>
		<path class="st3" d="M233,95.5c2.4,0,4.4-2,4.4-4.4s-2-4.4-4.4-4.4s-4.4,2-4.4,4.4S230.5,95.5,233,95.5z"/>
		<path class="st3" d="M233,99.4c-2.4,0-4.4,2-4.4,4.4s2,4.4,4.4,4.4s4.4-2,4.4-4.4C237.4,101.3,235.4,99.4,233,99.4z"/>
		<path class="st3" d="M233,111.9c-2.4,0-4.4,2-4.4,4.4s2,4.4,4.4,4.4s4.4-2,4.4-4.4S235.4,111.9,233,111.9z"/>
		<path class="st3" d="M269.2,86.7c-2.4,0-4.4,2-4.4,4.4s2,4.4,4.4,4.4s4.4-2,4.4-4.4S271.7,86.7,269.2,86.7z"/>
		<path class="st3" d="M269.2,99.4c-2.4,0-4.4,2-4.4,4.4s2,4.4,4.4,4.4s4.4-2,4.4-4.4C273.5,101.3,271.7,99.4,269.2,99.4z"/>
		<path class="st3" d="M269.2,111.9c-2.4,0-4.4,2-4.4,4.4s2,4.4,4.4,4.4s4.4-2,4.4-4.4S271.7,111.9,269.2,111.9z"/>
		<path class="st3" d="M304,86.7c-2.4,0-4.4,2-4.4,4.4s2,4.4,4.4,4.4s4.4-2,4.4-4.4S306.5,86.7,304,86.7z"/>
		<path class="st3" d="M315.5,99.4c-2.4,0-4.4,2-4.4,4.4s2,4.4,4.4,4.4s4.4-2,4.4-4.4C319.8,101.3,317.8,99.4,315.5,99.4z"/>
		<path class="st3" d="M96.7,99.4c-2.4,0-4.4,2-4.4,4.4s2,4.4,4.4,4.4s4.4-2,4.4-4.4C101.1,101.3,99.1,99.4,96.7,99.4z"/>
		<path class="st3" d="M124,111.9c-2.4,0-4.4,2-4.4,4.4s2,4.4,4.4,4.4s4.4-2,4.4-4.4S126.4,111.9,124,111.9z"/>
		<path class="st3" d="M124,99.4c-2.4,0-4.4,2-4.4,4.4s2,4.4,4.4,4.4s4.4-2,4.4-4.4C128.4,101.3,126.4,99.4,124,99.4z"/>
		<path class="st3" d="M124,86.7c-2.4,0-4.4,2-4.4,4.4s2,4.4,4.4,4.4s4.4-2,4.4-4.4S126.4,86.7,124,86.7z"/>
		<path class="st3" d="M137.9,99.4c-2.4,0-4.4,2-4.4,4.4s2,4.4,4.4,4.4s4.4-2,4.4-4.4C142.3,101.3,140.4,99.4,137.9,99.4z"/>
	</g>
</g>
</svg>
